<svg width="24" height="24" viewBox="0 0 24 24" fill="none" xmlns="http://www.w3.org/2000/svg">
<path d="M13.1973 2C14.6579 2.00001 16.0218 2.73001 16.832 3.94531C17.2713 4.60422 18.0108 4.99999 18.8027 5H21C21.7957 5 22.5585 5.3163 23.1211 5.87891C23.6837 6.44151 24 7.20435 24 8V19C24 19.7957 23.6837 20.5585 23.1211 21.1211C22.5585 21.6837 21.7957 22 21 22H3C2.20435 22 1.44151 21.6837 0.878906 21.1211C0.316297 20.5585 0 19.7957 0 19V8C0 7.20435 0.316297 6.44152 0.878906 5.87891C1.44152 5.3163 2.20435 5 3 5H5.19727C5.98917 4.99999 6.7287 4.60422 7.16797 3.94531C7.97817 2.73001 9.34212 2.00001 10.8027 2H13.1973ZM10.8027 4C10.0108 4.00001 9.2713 4.39578 8.83203 5.05469C8.02183 6.26999 6.65788 6.99999 5.19727 7H3C2.73478 7 2.4805 7.10543 2.29297 7.29297C2.10543 7.48051 2 7.73478 2 8V19C2 19.2652 2.10543 19.5195 2.29297 19.707C2.48051 19.8946 2.73478 20 3 20H21C21.2652 20 21.5195 19.8946 21.707 19.707C21.8946 19.5195 22 19.2652 22 19V8C22 7.73478 21.8946 7.48051 21.707 7.29297C21.5195 7.10543 21.2652 7 21 7H18.8027C17.3421 6.99999 15.9782 6.26999 15.168 5.05469C14.7287 4.39578 13.9892 4.00001 13.1973 4H10.8027Z" fill="white"/>
<path d="M9.2 9.14343C8.45946 9.8694 8 10.881 8 12C8 14.2091 10.2909 15.866 12.5 15.866L9.5 17.4434M15 14.6458C15.6224 13.9407 16 13.0144 16 12C16 9.79086 13.7091 8 11.5 8L14.5 6.55664" stroke="white" stroke-width="1.5"/>
</svg>
