<svg width="16" height="16" viewBox="0 0 16 16" fill="none" xmlns="http://www.w3.org/2000/svg">
<path d="M4.66732 1.33398C4.29913 1.33398 4.00065 1.63246 4.00065 2.00065C4.00065 2.36884 4.29913 2.66732 4.66732 2.66732H12.6673C13.0355 2.66732 13.334 2.96579 13.334 3.33398V11.334C13.334 11.7022 13.6325 12.0007 14.0007 12.0007C14.3688 12.0007 14.6673 11.7022 14.6673 11.334V3.33398C14.6673 2.22942 13.7719 1.33398 12.6673 1.33398H4.66732Z" fill="black"/>
<path fill-rule="evenodd" clip-rule="evenodd" d="M3.33398 4.00065C2.22942 4.00065 1.33398 4.89608 1.33398 6.00065V12.6673C1.33398 13.7719 2.22941 14.6673 3.33398 14.6673H10.0007C11.1052 14.6673 12.0007 13.7719 12.0007 12.6673V6.00065C12.0007 4.89608 11.1052 4.00065 10.0007 4.00065H3.33398ZM2.66732 6.00065C2.66732 5.63246 2.96579 5.33398 3.33398 5.33398H10.0007C10.3688 5.33398 10.6673 5.63246 10.6673 6.00065V12.6673C10.6673 13.0355 10.3688 13.334 10.0007 13.334H3.33398C2.96579 13.334 2.66732 13.0355 2.66732 12.6673V6.00065Z" fill="black"/>
</svg>
