<svg width="25" height="24" viewBox="0 0 25 24" fill="none" xmlns="http://www.w3.org/2000/svg">
<path fill-rule="evenodd" clip-rule="evenodd" d="M12.5 24C19.1274 24 24.5 18.6274 24.5 12C24.5 5.37258 19.1274 0 12.5 0C5.87258 0 0.5 5.37258 0.5 12C0.5 18.6274 5.87258 24 12.5 24ZM16.1095 8.39052C15.5888 7.86983 14.7446 7.86983 14.2239 8.39052L12.5 10.1144L10.7761 8.39052C10.2554 7.86983 9.41122 7.86983 8.89052 8.39052C8.36983 8.91122 8.36983 9.75544 8.89052 10.2761L10.6144 12L8.89052 13.7239C8.36983 14.2446 8.36983 15.0888 8.89052 15.6095C9.41122 16.1302 10.2554 16.1302 10.7761 15.6095L12.5 13.8856L14.2239 15.6095C14.7446 16.1302 15.5888 16.1302 16.1095 15.6095C16.6302 15.0888 16.6302 14.2446 16.1095 13.7239L14.3856 12L16.1095 10.2761C16.6302 9.75544 16.6302 8.91122 16.1095 8.39052Z" fill="#A9A8BB"/>
</svg>
