<svg width="80" height="16" viewBox="0 0 80 16" fill="none" xmlns="http://www.w3.org/2000/svg">
<g clip-path="url(#clip0_16754_396)">
<path d="M30.0505 3.29297V5.65513C29.6043 5.34932 29.0731 5.18059 28.4782 5.18059C26.7358 5.18059 25.4609 6.46713 25.4609 8.19657C25.4609 9.91547 26.7358 11.2125 28.4782 11.2125C29.1794 11.2125 29.7956 10.97 30.2736 10.5693L30.4543 11.0438H31.6017V3.29297H30.0505ZM28.6057 9.75729C27.7026 9.75729 27.0439 9.08238 27.0439 8.19657C27.0439 7.30021 27.7026 6.63585 28.6057 6.63585C29.5087 6.63585 30.1674 7.30021 30.1674 8.19657C30.1674 9.08238 29.5087 9.75729 28.6057 9.75729Z" fill="black"/>
<path d="M37.7702 5.33877L37.6108 5.87659C37.1115 5.44423 36.4634 5.18059 35.7197 5.18059C33.9986 5.18059 32.7131 6.46713 32.7131 8.18602C32.7131 9.90492 33.9986 11.202 35.7197 11.202C36.4528 11.202 37.0902 10.9489 37.5789 10.5166L37.7171 11.0333H38.9282V5.33877H37.7702ZM35.8472 9.74674C34.9442 9.74674 34.2855 9.07184 34.2855 8.18602C34.2855 7.28967 34.9442 6.62531 35.8472 6.62531C36.7503 6.62531 37.409 7.28967 37.409 8.18602C37.409 9.08238 36.7503 9.74674 35.8472 9.74674Z" fill="black"/>
<path d="M43.2355 9.66238C42.6618 9.66238 42.3431 9.34602 42.3431 8.79766V6.58313H43.9048V5.33877H42.3218V3.86242H42.0244L39.7614 6.24567V6.58313H40.792V9.00856C40.792 10.2635 41.5675 11.0333 42.8318 11.0333H43.9367V9.66238H43.2355Z" fill="black"/>
<path d="M49.6185 5.33877L49.4592 5.87659C48.9598 5.44423 48.3117 5.18059 47.5681 5.18059C45.847 5.18059 44.5615 6.46713 44.5615 8.18602C44.5615 9.90492 45.847 11.202 47.5681 11.202C48.3011 11.202 48.9386 10.9489 49.4273 10.5166L49.5654 11.0333H50.7765V5.33877H49.6185ZM47.6956 9.74674C46.7925 9.74674 46.1338 9.07184 46.1338 8.18602C46.1338 7.28967 46.7925 6.62531 47.6956 6.62531C48.5986 6.62531 49.2573 7.28967 49.2573 8.18602C49.2573 9.08238 48.5986 9.74674 47.6956 9.74674Z" fill="black"/>
<path d="M54.3776 11.2024C55.8331 11.2024 56.7893 10.4431 56.7893 9.28312C56.7893 7.89113 55.5888 7.70131 54.6538 7.53258C54.0589 7.42713 53.5702 7.33222 53.5702 6.95259C53.5702 6.62568 53.857 6.41477 54.3351 6.41477C54.8769 6.41477 55.1957 6.63623 55.2063 7.08968H56.683C56.6724 5.95078 55.7587 5.18096 54.3776 5.18096C52.9965 5.18096 52.0722 5.92969 52.0722 7.00531C52.0722 8.34458 53.2408 8.58712 54.1545 8.7453C54.7601 8.84021 55.2594 8.95621 55.2594 9.34639C55.2594 9.72602 54.8663 9.92638 54.4413 9.92638C53.8889 9.92638 53.4958 9.6733 53.4852 9.16712H51.9766C51.9766 10.3798 52.9434 11.2024 54.3776 11.2024Z" fill="#6664E8"/>
<path d="M61.0537 5.18096C60.3419 5.18096 59.7044 5.43405 59.2157 5.86641L58.9501 5.33914H57.9302V13.09H59.4813V10.7278C59.9169 11.0336 60.4587 11.2129 61.0537 11.2129C62.7854 11.2129 64.0603 9.91584 64.0603 8.1864C64.0603 6.4675 62.7854 5.18096 61.0537 5.18096ZM60.9262 9.74711C60.0231 9.74711 59.3644 9.08275 59.3644 8.1864C59.3644 7.30058 60.0231 6.62568 60.9262 6.62568C61.8292 6.62568 62.4879 7.30058 62.4879 8.1864C62.4879 9.08275 61.8292 9.74711 60.9262 9.74711Z" fill="#6664E8"/>
<path d="M65.172 4.57988H66.7125V3.15625H65.172V4.57988ZM65.172 11.0336H66.7231V5.33914H65.172V11.0336Z" fill="#6664E8"/>
<path d="M73.6195 11.0336L71.4629 8.05985L73.4071 5.33914H71.6222L69.9011 7.87004V3.29334H68.35V11.0336H69.9011V8.31294L71.7391 11.0336H73.6195Z" fill="#6664E8"/>
<path d="M79.6408 8.17585C79.6408 6.53077 78.4297 5.18096 76.6661 5.18096C74.9662 5.18096 73.6913 6.47804 73.6913 8.1864C73.6913 9.89475 74.9769 11.2024 76.6661 11.2024C78.0047 11.2024 79.099 10.4115 79.5133 9.16712H77.8879C77.6541 9.57839 77.2079 9.83148 76.6661 9.83148C75.9118 9.83148 75.4018 9.39912 75.2637 8.61876H79.609C79.6302 8.47112 79.6408 8.32349 79.6408 8.17585ZM76.6661 6.49914C77.3673 6.49914 77.8666 6.87877 78.0897 7.57476H75.3062C75.4868 6.89986 75.9755 6.49914 76.6661 6.49914Z" fill="#6664E8"/>
<path fill-rule="evenodd" clip-rule="evenodd" d="M0.859375 2.59544C0.859375 1.57623 1.69177 0.75 2.71859 0.75H11.0566C15.0905 0.75 18.3607 3.99591 18.3607 7.99995C18.3607 12.004 15.0905 15.2499 11.0566 15.2499H2.71859C1.69177 15.2499 0.859375 14.4237 0.859375 13.4045C0.859375 12.3852 1.69177 11.559 2.71859 11.559H11.0566C13.0369 11.559 14.6422 9.96557 14.6422 7.99995C14.6422 6.03433 13.0369 4.44088 11.0566 4.44088H2.71859C1.69177 4.44088 0.859375 3.61465 0.859375 2.59544Z" fill="black"/>
<path fill-rule="evenodd" clip-rule="evenodd" d="M0.974238 1.38817C1.70031 0.667484 2.87749 0.667484 3.60356 1.38817L9.0484 6.79268C9.77447 7.51337 9.77447 8.68184 9.0484 9.40253L3.60356 14.807C2.87749 15.5277 1.70031 15.5277 0.974238 14.807C0.248171 14.0863 0.248171 12.9179 0.974238 12.1972L5.10441 8.09761L0.974238 3.99802C0.248171 3.27733 0.248171 2.10886 0.974238 1.38817Z" fill="url(#paint0_linear_16754_396)"/>
</g>
<defs>
<linearGradient id="paint0_linear_16754_396" x1="4.94492" y1="1.90219" x2="1.27729" y2="14.8347" gradientUnits="userSpaceOnUse">
<stop stop-color="#F3AEC2"/>
<stop offset="0.635417" stop-color="#6764E8"/>
</linearGradient>
<clipPath id="clip0_16754_396">
<rect width="80" height="16" fill="white"/>
</clipPath>
</defs>
</svg>
