<svg width="65" height="65" viewBox="0 0 65 65" fill="none" xmlns="http://www.w3.org/2000/svg">
<path d="M31.6527 1.19329C31.906 1.21143 32.1567 1.18845 32.4101 1.18521C32.8268 1.17988 33.2388 1.18711 33.6547 1.21653C36.0062 1.38287 37.8538 1.81407 40.0624 2.62158C40.694 2.85247 41.3183 3.07499 41.9228 3.37317C42.297 3.55772 42.6279 3.81623 42.9784 4.04055C43.4604 4.34897 43.9636 4.6397 44.411 4.99787C45.3777 5.77184 46.652 7.33117 47.3787 8.36425C47.5736 8.64114 47.7391 8.93929 47.9224 9.22392C49.0121 10.9158 49.94 12.6506 50.6999 14.5156C51.8333 17.2971 52.5678 20.2002 53.1185 23.1461C54.1439 28.6316 54.4801 34.2002 54.6734 39.7681C54.6971 40.4499 54.8042 46.7614 54.8164 46.7899C54.8296 46.8211 56.0526 47.1227 56.5733 47.3518C57.1046 47.5856 57.4157 47.8516 57.6327 48.4022C57.5969 48.5445 57.5532 48.69 57.4843 48.8201C57.0092 49.7185 55.7142 49.9994 54.8139 50.2609C54.8569 51.0953 54.831 51.9445 54.8381 52.7804L54.8586 58.1344C54.8564 59.1185 54.8155 60.1072 54.8793 61.0919C55.2835 61.1618 55.8463 61.0951 56.2696 61.0889C57.5888 61.0697 58.9309 60.9862 60.2486 61.0416C60.4082 61.0483 60.5487 61.0589 60.662 61.1824C60.6952 61.2699 60.696 61.3077 60.6751 61.3987C60.589 61.454 60.5047 61.4634 60.4048 61.4704C59.8772 61.5076 59.331 61.47 58.8001 61.4787L54.5124 61.5357C53.714 61.5486 52.8708 61.4974 52.081 61.584C51.8632 61.6078 51.6322 61.7446 51.4202 61.8094C51.2423 61.8639 51.0511 61.8923 50.8687 61.929C49.9085 62.1224 48.9372 62.2078 47.9641 62.3092C45.9507 62.519 43.9212 62.5936 41.9003 62.6996C40.0873 62.7946 38.2608 62.9264 36.446 62.953C36.2001 62.9662 35.9542 62.9778 35.7081 62.9877C31.8841 63.1056 28.0602 63.1052 24.2362 62.9867C21.9802 62.8832 19.726 62.75 17.4735 62.5873C16.5646 62.5339 15.6569 62.4633 14.7506 62.3754C14.0566 62.3139 13.2351 62.3066 12.5817 62.0626C12.4701 62.021 12.3877 61.9441 12.3019 61.8641C11.6941 61.8856 7.34611 61.9637 7.18183 61.9072C7.17091 61.9034 7.16101 61.8973 7.1506 61.8924C7.05634 61.9157 4.57264 61.9274 4.47851 61.9121C4.35918 61.8926 4.29461 61.8561 4.22705 61.7564C4.22295 61.6726 4.24467 61.6358 4.28621 61.5641C4.31283 61.5471 4.33625 61.5235 4.36606 61.5131C4.55306 61.4479 7.25584 61.4644 7.62236 61.4757C7.61626 61.4216 7.61157 61.3674 7.60827 61.3131C7.57234 60.6317 7.58948 59.9372 7.58992 59.2546L7.59519 55.5582L7.58878 44.3436L7.59424 36.0382C7.595 33.8661 7.57551 31.5509 7.74639 29.3934C7.92743 27.1077 8.314 24.8498 8.75338 22.6014C9.05236 21.0714 9.32575 19.5603 9.82652 18.0791C10.0788 17.3328 10.4319 16.6285 10.766 15.9177C11.0644 15.2829 11.3329 14.6371 11.6576 14.0141C11.9235 13.5137 12.2036 13.0213 12.4978 12.5369C12.7921 12.0525 13.1 11.577 13.4216 11.1104C13.7431 10.6437 14.0779 10.1866 14.4257 9.73922C14.7735 9.29179 15.1339 8.85474 15.5069 8.42805C16.4214 7.39998 17.4232 6.39261 18.5244 5.5631C18.8408 5.32478 19.1867 5.1308 19.5122 4.90602C19.8723 4.65731 20.2124 4.37926 20.5866 4.15107C20.9215 3.94684 21.2804 3.77186 21.6291 3.59148C21.8893 3.45487 22.1523 3.32395 22.4181 3.19873C22.6839 3.0735 22.9523 2.95408 23.2233 2.84047C23.4943 2.72686 23.7676 2.61916 24.0433 2.51738C24.319 2.41559 24.5967 2.31982 24.8765 2.23006C25.1563 2.14029 25.4379 2.05662 25.7213 1.97904C26.0047 1.90146 26.2897 1.83005 26.5762 1.7648C26.8627 1.69956 27.1505 1.64054 27.4396 1.58775C27.7287 1.53496 28.0188 1.48844 28.3098 1.4482C28.9497 1.35445 29.6104 1.26698 30.2561 1.2347C30.7214 1.21145 31.1872 1.22052 31.6527 1.19329Z" fill="black"/>
<path d="M33.2672 10.1246C34.4106 9.99727 35.5335 10.4077 36.4179 11.1108C36.7073 11.3409 36.9513 11.6121 37.1897 11.893C38.4495 13.3773 38.7754 15.1756 39.0299 17.0396C39.1403 17.8384 39.2398 18.6385 39.3285 19.44C39.5525 21.5004 39.5516 23.6077 39.592 25.6783C39.5998 26.0796 39.7128 26.5285 39.6734 26.9228C39.7276 27.2645 39.8196 27.6061 39.9106 27.9398C40.0359 28.2774 40.1566 28.619 40.2967 28.9508C40.4872 29.4022 40.9506 30.2129 40.9884 30.6727C40.9391 30.7144 40.9648 30.7014 40.9147 30.7178C41.0259 30.7516 41.0439 30.7749 41.1006 30.8778C41.1918 31.0432 41.2415 31.2494 41.2976 31.4294C41.5424 32.5478 41.948 33.6361 42.2194 34.7516C42.2875 35.0314 42.3706 35.3119 42.408 35.5977C42.4796 35.8522 42.5514 36.1062 42.6416 36.3548L42.6268 36.407C42.595 36.8187 42.7562 37.3392 42.8302 37.7502C42.9356 38.337 43.0367 38.9246 43.1334 39.5129C43.3111 40.5847 43.3914 41.7071 43.6658 42.7576C45.0136 43.8475 46.588 44.7824 48.2106 45.3945C48.7789 45.6089 49.3687 45.7771 49.9503 45.9521C50.4102 46.0905 50.9941 46.3283 51.4748 46.2763C51.507 46.2729 51.5391 46.2682 51.5711 46.2636C51.5971 47.4215 51.6527 48.5831 51.644 49.741C50.7564 49.7302 49.8752 49.8331 48.989 49.8228C47.615 49.8069 46.1987 49.4861 44.886 49.1016C44.2612 48.9186 43.684 48.5946 43.0662 48.4137C43.0592 47.5668 43.1593 46.7281 43.1686 45.8829C43.1709 45.6706 43.1946 45.4244 43.1576 45.2172C43.1466 45.1555 43.1329 45.1409 43.0897 45.0985C43.0419 45.0518 43.0127 45.0306 42.9459 45.0151C42.8654 45.0502 42.8407 45.0716 42.8048 45.1534C42.5884 45.6465 42.5737 50.0408 42.6247 50.8707C42.6539 51.346 42.8027 51.8269 42.8034 52.2989L43.3891 55.3483C43.5178 56.0044 44.2383 59.0356 43.9501 59.4571C43.8894 59.5458 43.7917 59.6309 43.7104 59.7004C40.9374 60.7116 38.2216 61.1757 35.281 61.3085C35.5815 61.0057 35.8978 60.7567 36.2435 60.5092C36.4709 60.3464 36.7252 60.2002 36.9183 59.9973C36.9399 59.9126 36.9313 59.8951 36.9058 59.8101C36.8385 59.7495 36.8218 59.729 36.7267 59.7247C36.5757 59.7179 36.3783 59.8567 36.2547 59.9332C35.6259 60.3225 35.1489 60.7614 34.6602 61.3166C34.2288 61.3471 33.8036 61.3543 33.372 61.3242C33.8827 60.7659 34.5799 60.5009 35.1541 60.0399C35.2417 59.9696 35.3058 59.906 35.3493 59.802C35.3415 59.7126 35.338 59.7082 35.2796 59.6395C35.2365 59.6243 35.1978 59.6121 35.1513 59.6152C34.7475 59.643 33.641 60.4684 33.311 60.7648C33.1118 60.9437 32.9413 61.1412 32.7736 61.3493C32.2958 61.3399 31.8184 61.3234 31.3412 61.2998C31.5512 61.0991 31.7882 60.9319 32.0325 60.7759C32.2553 60.6335 33.6985 59.8568 33.7582 59.7585C33.803 59.6846 33.8059 59.5902 33.7823 59.5118C33.7137 59.4611 33.6521 59.4686 33.571 59.4833C32.9444 59.5968 31.2761 60.6136 30.8999 61.1732C30.639 61.1544 30.3955 61.1217 30.1411 61.0574C29.9875 61.0185 29.7668 60.9769 29.6802 60.8333C29.8235 60.2174 33.9826 58.3441 34.7598 57.9708C35.0701 57.8218 35.7732 57.5876 35.9709 57.3157C36.0922 57.1488 35.6664 56.381 35.58 56.1823C35.3411 55.6337 35.1566 55.0543 34.9587 54.4895C34.7365 53.8554 34.5299 53.2163 34.3388 52.5721C34.1478 51.9279 33.9727 51.2795 33.8134 50.6267C33.654 49.974 33.5108 49.3177 33.3835 48.658C33.2563 47.9982 33.1452 47.3358 33.0503 46.6706C32.9231 45.8291 32.8999 44.9723 32.7805 44.1332C32.7624 44.0054 32.7051 43.8451 32.5849 43.7785C32.5112 43.7377 32.4844 43.7534 32.4162 43.7844C32.3749 43.8466 32.3559 43.8978 32.3501 43.9729C32.3226 44.3274 32.4035 44.7094 32.4385 45.0631C32.5539 46.2302 32.7286 47.3789 32.8813 48.5404C32.523 48.4757 32.1573 48.4583 31.7987 48.3887C30.6969 48.1747 29.2452 47.6886 28.4336 46.9004C27.7568 46.5301 26.8639 45.6098 26.4845 44.952C25.8172 43.7947 25.4454 42.4253 25.2989 41.1033C25.0827 39.1507 25.2857 37.1045 25.5094 35.1603C25.7477 33.0897 26.0296 31.0314 26.4452 28.9874C26.7823 27.3299 27.2138 25.7058 27.661 24.0758C28.4321 24.3779 29.3947 24.3208 30.1896 24.1307C30.39 23.9999 30.7289 23.9518 30.9611 23.8613C32.2742 23.3495 33.5463 22.369 34.1257 21.0514C34.6396 20.8128 35.1611 20.6165 35.666 20.353C36.4823 19.927 37.4317 19.1186 37.6905 18.1945C37.7188 18.0931 37.7242 18.0161 37.6705 17.9214C37.6221 17.8828 37.5876 17.8681 37.5271 17.8602C37.4804 17.8542 37.4089 17.8513 37.3707 17.8844C37.182 18.0474 37.0614 18.4734 36.9203 18.6915C36.7002 19.0317 36.3442 19.3465 36.0223 19.5877C34.0476 21.0678 29.7084 21.7213 27.2788 21.3641C26.4712 21.2875 25.6304 21.1632 24.8912 20.8113C24.004 20.3888 23.3079 19.8196 22.9725 18.8774C23.0895 18.9351 23.1952 19.0061 23.3034 19.0782C23.4184 19.0622 24.9895 19.4473 25.2982 19.4972C25.7395 19.5685 26.1921 19.5651 26.6381 19.5785C28.5989 19.6376 31.0423 19.4803 32.8095 18.5829C33.9516 18.0028 34.5432 16.9638 34.9214 15.7773C34.9699 15.6252 34.9999 15.4832 34.9046 15.3399C34.8541 15.264 34.8418 15.2599 34.7582 15.2486C34.4821 15.4062 34.1583 16.4789 33.981 16.8184C33.4572 17.8211 32.6057 18.2824 31.5534 18.6087C29.8189 19.1465 27.141 19.321 25.3526 19.094C24.9381 19.0413 24.5342 18.9404 24.1303 18.8358C23.7843 18.7462 23.4293 18.6557 23.1129 18.485C23.102 18.4791 23.0912 18.473 23.0804 18.4669C22.9629 18.4243 22.8701 18.3917 22.8133 18.269C22.7205 18.0687 22.7461 17.8401 22.7288 17.6258C22.6812 17.0344 22.616 16.5303 22.8187 15.95C23.3493 14.4303 25.2133 13.4557 26.5527 12.7495C26.7286 12.6569 26.8814 12.5126 27.0618 12.4309C27.1321 12.399 27.136 12.392 27.2106 12.4203C27.24 12.4848 27.2489 12.5224 27.2469 12.5933C27.2554 12.6107 27.2627 12.6288 27.2724 12.6456C27.4276 12.9149 27.6983 13.0146 27.9814 13.0862C28.0091 13.0801 28.0367 13.0738 28.0643 13.0673C28.3701 12.9953 28.5941 12.8635 28.7574 12.5841C28.7682 12.5656 28.7786 12.5468 28.7884 12.5277C28.7983 12.5087 28.8078 12.4894 28.8167 12.4699C28.8256 12.4503 28.8341 12.4306 28.842 12.4106C28.85 12.3907 28.8574 12.3705 28.8644 12.3502C28.8713 12.3299 28.8777 12.3094 28.8837 12.2888C28.8896 12.2682 28.895 12.2474 28.8998 12.2265C28.9048 12.2056 28.9091 12.1846 28.913 12.1634C28.9168 12.1423 28.9202 12.1211 28.9229 12.0998C28.9257 12.0785 28.9279 12.0572 28.9297 12.0358C28.9314 12.0144 28.9326 11.9929 28.9333 11.9714C28.9339 11.95 28.9341 11.9285 28.9337 11.9071C28.9333 11.8856 28.9323 11.8642 28.9308 11.8427C28.9293 11.8213 28.9273 11.7999 28.9248 11.7786C28.9223 11.7573 28.9192 11.7361 28.9157 11.7149C28.9121 11.6937 28.9079 11.6727 28.9033 11.6517C28.8986 11.6307 28.8935 11.6099 28.8878 11.5892L28.8796 11.5797C28.8957 11.5106 28.8799 11.537 28.9349 11.4841C29.0804 11.3447 29.2833 11.2425 29.4556 11.1395C29.5273 11.0973 29.5997 11.0564 29.6729 11.0166C29.7459 10.9769 29.8197 10.9385 29.8941 10.9013C29.9685 10.8641 30.0436 10.8282 30.1192 10.7935C30.1949 10.7589 30.271 10.7255 30.3478 10.6933C30.4246 10.6613 30.5019 10.6305 30.5797 10.6011C30.6575 10.5716 30.7358 10.5435 30.8146 10.5167C30.8933 10.4899 30.9725 10.4644 31.0521 10.4403C31.1317 10.4162 31.2117 10.3934 31.2921 10.372C31.3726 10.3506 31.4533 10.3306 31.5344 10.3119C31.6154 10.2932 31.6968 10.2759 31.7784 10.2601C31.8601 10.2441 31.942 10.2296 32.0242 10.2164C32.1063 10.2033 32.1887 10.1916 32.2713 10.1812C32.3538 10.1709 32.4365 10.162 32.5193 10.1544C32.6022 10.1469 32.6852 10.1408 32.7682 10.136C32.8513 10.1313 32.9344 10.128 33.0176 10.1261C33.1008 10.1242 33.184 10.1237 33.2672 10.1246Z" fill="#6764E8"/>
<path d="M28.43 46.9027C27.7531 46.5324 26.8602 45.6122 26.4808 44.9543C25.8135 43.7971 25.4417 42.4276 25.2953 41.1057C25.0791 39.153 25.282 37.1068 25.5058 35.1626C25.744 33.092 26.026 31.0338 26.4416 28.9897C26.7786 27.3322 27.2101 25.7081 27.6573 24.0781C28.4285 24.3803 29.3911 24.3231 30.1859 24.133C30.0986 24.3048 29.892 24.6149 29.9298 24.8131C29.7741 25.0692 29.7741 25.3588 29.8429 25.6445C29.8664 25.7422 29.9021 25.8377 29.9365 25.932C29.5782 25.7115 29.0595 25.295 28.6105 25.3986C28.491 25.4262 28.4002 25.4978 28.3391 25.6034C28.1969 25.849 28.2433 26.1482 28.3252 26.4055C28.3671 26.5371 28.4311 26.6602 28.4935 26.7831C28.1336 26.6865 27.6093 26.4916 27.2634 26.6964C27.1765 26.7478 27.1105 26.8317 27.0909 26.932C27.0028 27.3845 27.485 28.0128 27.7341 28.3507C27.7897 28.426 27.8458 28.501 27.9024 28.5756C27.8929 28.5789 27.8835 28.5824 27.874 28.5856C27.6404 28.6656 27.2634 28.6555 27.1317 28.8985C27.0508 29.0476 27.0943 29.2281 27.1517 29.3766C27.2818 29.7129 27.5138 29.9821 27.7568 30.2417C27.4869 30.8167 27.3775 31.5473 27.2389 32.1695C26.4511 35.7086 26.0583 41.3936 27.3017 44.8309C27.4886 45.3475 27.7044 45.904 28.0105 46.3618C28.1368 46.5507 28.3295 46.6972 28.43 46.9027Z" fill="white"/>
<path d="M29.9277 24.8127C30.0679 24.725 30.2034 24.6262 30.3785 24.6649C31.0922 24.8224 32.6268 26.9514 33.006 27.6117C33.189 27.9302 33.2528 28.2886 33.4086 28.6168C33.6355 29.0945 33.9616 29.489 34.1087 30.006C34.2532 29.7959 34.4171 29.5988 34.5533 29.3835C34.8359 28.9364 35.0705 28.4327 35.2823 27.9486C35.3708 27.7463 35.4079 27.5125 35.4979 27.321C35.546 27.2187 35.6175 27.1638 35.7229 27.1365L35.7132 27.1358C35.7841 27.1669 35.8144 27.1923 35.8472 27.2649C35.9774 27.5537 35.7718 27.9954 35.6488 28.2617C35.3248 28.9632 34.9919 29.7985 34.3983 30.3168C34.644 30.6008 34.865 30.9061 35.1 31.199C35.2923 31.4387 35.5394 31.6807 35.6834 31.9522C35.7355 32.0503 35.7553 32.126 35.7524 32.2364C35.7076 32.3059 35.7005 32.3177 35.6127 32.332C35.5096 32.3488 35.4195 32.3002 35.3461 32.234C34.8215 31.7614 33.5234 29.9339 33.2077 29.313C33.0101 28.9243 32.912 28.5093 32.7358 28.1154C32.4045 27.3747 31.6712 26.414 31.0582 25.8825C31.1754 26.3126 31.5026 27.3134 31.3509 27.7192C31.295 27.7734 31.2723 27.8045 31.186 27.7951C31.1046 27.7863 31.0237 27.7314 30.9654 27.677C30.8268 27.5475 30.7179 27.3877 30.5757 27.2601C30.1104 26.8422 29.5535 26.4674 29.0401 26.1109C29.3469 26.7859 29.83 27.3976 30.1154 28.067C30.1585 28.1682 30.1782 28.2472 30.1655 28.3563C30.1167 28.424 30.1081 28.4396 30.0193 28.452C29.6402 28.505 28.1534 27.3609 27.6709 27.1372C27.7141 27.3349 27.7586 27.5367 27.8748 27.7071C28.0927 28.0265 29.3836 29.1935 29.2768 29.5441C29.1913 29.6084 29.1381 29.6153 29.0316 29.6026C28.6491 29.5568 28.0048 29.4245 27.6231 29.33C28.2297 30.3761 29.2782 30.6501 30.2445 31.2263C30.374 31.5328 30.4698 31.8521 30.602 32.1571C31.2758 33.7112 32.3452 35.551 33.9796 36.2163C34.6881 36.5047 35.3886 36.4478 36.0858 36.1508C37.0436 35.7426 37.7362 34.8965 38.25 34.0166C38.349 33.847 38.5255 33.3869 38.7527 33.3788L38.8034 33.377C38.8707 33.4222 38.9125 33.4444 38.9331 33.5303C39.0098 33.8485 38.1841 34.991 37.9725 35.2411C37.2699 36.0717 36.3237 36.7516 35.212 36.8359C34.1438 36.9168 33.2199 36.4443 32.4342 35.7577C31.368 34.8259 30.3092 32.9145 29.9041 31.5687C29.2044 31.0829 28.3007 30.9601 27.7546 30.2414C27.5116 29.9817 27.2796 29.7126 27.1495 29.3763C27.0921 29.2278 27.0486 29.0473 27.1296 28.8981C27.2613 28.6552 27.6382 28.6652 27.8718 28.5852C27.8813 28.582 27.8908 28.5786 27.9002 28.5752C27.8436 28.5006 27.7876 28.4256 27.7319 28.3503C27.4828 28.0125 27.0006 27.3841 27.0887 26.9317C27.1083 26.8313 27.1743 26.7475 27.2612 26.6961C27.6071 26.4912 28.1314 26.6862 28.4913 26.7827C28.4289 26.6598 28.3649 26.5368 28.323 26.4051C28.2412 26.1478 28.1948 25.8486 28.3369 25.6031C28.398 25.4975 28.4888 25.4258 28.6084 25.3982C29.0573 25.2946 29.576 25.7112 29.9343 25.9317C29.8999 25.8374 29.8643 25.7419 29.8407 25.6442C29.772 25.3584 29.772 25.0689 29.9277 24.8127Z" fill="black"/>
<path d="M23.0804 18.4667C22.9629 18.4241 22.8701 18.3914 22.8133 18.2688C22.7205 18.0685 22.7461 17.8399 22.7288 17.6255C22.6812 17.0342 22.616 16.5301 22.8187 15.9498C23.3493 14.4301 25.2133 13.4555 26.5527 12.7493C26.7286 12.6566 26.8814 12.5124 27.0618 12.4307C27.1321 12.3988 27.136 12.3918 27.2106 12.4201C27.24 12.4846 27.2489 12.5221 27.2469 12.5931C27.0136 12.8126 26.7394 12.9427 26.477 13.1201C26.2802 13.2532 26.1036 13.4147 25.9081 13.5496C25.627 13.7435 25.3283 13.9106 25.0542 14.1151C24.7208 14.3639 24.4663 14.694 24.1583 14.9678C24.0467 15.0769 23.9677 15.182 23.8841 15.3133C23.2992 16.3781 23.015 17.2358 23.0804 18.4667Z" fill="white"/>
<path d="M42.8017 52.3008L43.3875 55.3502C43.5162 56.0063 44.2366 59.0375 43.9484 59.459C43.8878 59.5477 43.7901 59.6328 43.7088 59.7023C43.5838 59.3342 43.5062 58.2478 43.4439 57.7805L42.987 54.5033C42.8928 53.7991 42.7448 53.0112 42.8017 52.3008Z" fill="white"/>
<path d="M22.9688 18.8789C23.0857 18.9366 23.1914 19.0075 23.2997 19.0796C23.7521 19.9444 25.0807 20.69 25.9924 20.9701C26.3018 21.0652 27.0544 21.183 27.2751 21.3655C26.4674 21.2889 25.6266 21.1646 24.8875 20.8127C24.0002 20.3903 23.3041 19.8211 22.9688 18.8789Z" fill="white"/>
<path d="M28.8832 11.5901L28.875 11.5806C28.8911 11.5115 28.8753 11.5378 28.9304 11.485C29.0758 11.3455 29.2787 11.2433 29.451 11.1403C29.5227 11.0982 29.5951 11.0572 29.6683 11.0175C29.7413 10.9778 29.8151 10.9394 29.8895 10.9022C29.9639 10.865 30.039 10.829 30.1146 10.7944C30.1903 10.7597 30.2664 10.7263 30.3432 10.6942C30.42 10.6621 30.4973 10.6314 30.5751 10.6019C30.6529 10.5725 30.7312 10.5443 30.81 10.5176C30.8887 10.4907 30.9679 10.4652 31.0475 10.4411C31.1271 10.417 31.2071 10.3943 31.2876 10.3729C31.368 10.3515 31.4487 10.3314 31.5298 10.3128C31.6108 10.2941 31.6922 10.2768 31.7738 10.2609C31.8555 10.245 31.9374 10.2305 32.0196 10.2173C32.1017 10.2042 32.1841 10.1924 32.2667 10.1821C32.3492 10.1718 32.4319 10.1628 32.5147 10.1553C32.5976 10.1478 32.6806 10.1416 32.7636 10.1369C32.8467 10.1322 32.9298 10.1289 33.013 10.1269C33.0962 10.125 33.1794 10.1245 33.2626 10.1255C32.8756 10.3452 31.8713 10.394 31.3747 10.5507C30.7706 10.7412 30.1519 11.0169 29.5725 11.2743C29.3628 11.3675 29.0992 11.5464 28.8832 11.5901Z" fill="white"/>
<path d="M24.157 14.9688C24.4297 15.1412 24.8981 15.6413 24.9722 15.9487C24.9878 16.0135 24.9807 16.0649 24.9683 16.1294C24.9094 16.2109 24.9035 16.2166 24.8091 16.2505C24.6284 16.2305 24.5117 16.1413 24.3984 16.0018C24.2164 15.7779 24.1009 15.51 23.8828 15.3142C23.9664 15.1829 24.0454 15.0778 24.157 14.9688Z" fill="black"/>
<path d="M39.0625 27.5894C39.1283 27.4055 39.1856 27.1726 39.3265 27.0314C39.4323 26.9254 39.5242 26.9208 39.6658 26.922C39.7201 27.2637 39.812 27.6053 39.9031 27.939C39.8004 27.9592 39.6793 27.9874 39.5746 27.9853C39.4473 27.9828 39.3347 27.8867 39.2543 27.7981L39.0625 27.5894Z" fill="white"/>
<path d="M41.2947 31.4304C41.2203 31.4617 41.1517 31.5026 41.0888 31.5532C41.0767 31.5627 41.0652 31.5729 41.0534 31.5827C41 31.5903 40.9473 31.5999 40.8935 31.5892C40.7887 31.5686 40.7126 31.5022 40.6589 31.4125C40.5732 31.2694 40.5559 31.078 40.606 30.9199C40.6379 30.819 40.6902 30.731 40.7851 30.6797L40.9118 30.7189C41.023 30.7527 41.0409 30.7759 41.0977 30.8789C41.1889 31.0443 41.2385 31.2505 41.2947 31.4304Z" fill="white"/>
<path d="M42.6273 36.4069L42.3321 36.5392C42.2287 36.5304 42.1421 36.4543 42.0718 36.3824C41.9786 36.287 41.9056 36.1787 41.9063 36.0417C41.9565 35.9375 42.0962 35.7866 42.2029 35.7391C42.2866 35.7019 42.3192 35.6854 42.3858 35.6204C42.3934 35.6129 42.4009 35.6053 42.4085 35.5977C42.48 35.8521 42.5518 36.1061 42.6421 36.3547L42.6273 36.4069Z" fill="white"/>
<path d="M33.7642 11.401C33.865 11.3956 33.9592 11.3968 34.0574 11.4237C34.374 11.5105 34.5285 11.8314 34.6702 12.0984C34.6586 12.4024 34.6436 12.7081 34.4874 12.9789C34.3462 13.2236 34.155 13.3416 33.8867 13.4088C33.7238 13.397 33.5818 13.3652 33.4388 13.2822C33.2071 13.1476 33.0594 12.9079 33.0011 12.6508C32.9344 12.357 32.9661 12.0037 33.1399 11.7506C33.3029 11.513 33.4932 11.4497 33.7642 11.401Z" fill="black"/>
<path d="M39.6293 34.6406C39.6902 34.6654 39.6706 34.6508 39.7135 34.6899C39.7444 34.7183 39.774 34.7436 39.8073 34.769C39.9589 34.7826 40.1195 34.99 40.2185 35.0973C40.1459 35.4334 40.0837 35.5846 39.8005 35.7974L39.6744 35.8273C39.5783 35.7983 39.4822 35.7703 39.4011 35.7089C39.2732 35.612 39.1774 35.4597 39.1598 35.2989C39.1191 34.9254 39.436 34.8961 39.611 34.6658C39.6172 34.6574 39.6232 34.649 39.6293 34.6406Z" fill="white"/>
<path d="M45.1215 45.5299C45.1374 45.5278 45.1532 45.5225 45.1692 45.5236C45.2892 45.5322 45.4545 45.6198 45.5337 45.7077C45.6525 45.8398 45.7173 45.9507 45.7075 46.1297C45.6747 46.2051 45.6125 46.2288 45.5442 46.2672L45.511 46.2856L45.5104 46.3033L45.5933 46.3145C45.6116 46.3882 45.5932 46.396 45.5632 46.4629C45.4802 46.4931 45.4562 46.4795 45.3685 46.4596L45.2688 46.5694C45.1474 46.5893 45.0243 46.5706 44.9219 46.499C44.7112 46.352 44.6854 46.2112 44.6484 45.9754C44.6832 45.9188 44.7123 45.8614 44.7428 45.8026C44.8445 45.6067 44.9236 45.5916 45.1215 45.5299Z" fill="white"/>
<path d="M38.3116 29.6178C38.401 29.6137 38.4812 29.6034 38.5656 29.64C38.5349 29.7121 38.5059 29.7166 38.4425 29.7591C38.5457 29.7624 38.6613 29.7218 38.762 29.6972L38.7855 29.7234L38.7626 29.8151C38.8018 29.8301 38.8616 29.8471 38.8939 29.873C38.9504 29.9185 38.9491 29.9418 38.9477 30.0066L38.8407 30.0381C38.8086 30.1348 38.8888 30.2627 38.8958 30.3717C38.8537 30.4596 38.799 30.487 38.7186 30.5338L38.6886 30.512L38.6497 30.5529C38.5886 30.5539 38.6102 30.5555 38.5545 30.5496C38.5423 30.5484 38.5301 30.5468 38.518 30.5454C38.4937 30.5895 38.473 30.6202 38.4406 30.66C38.2558 30.6008 38.0671 30.4862 37.9709 30.3118C37.9129 30.2068 37.8953 30.0847 37.9368 29.9706C38.0021 29.7907 38.1473 29.6973 38.3116 29.6178Z" fill="white"/>
<path d="M40.7197 44.9414C40.7451 44.9517 40.7706 44.9611 40.7949 44.974C40.9331 45.0472 41.1813 45.2208 41.2256 45.3689L41.1415 45.4706L41.1801 45.6184C41.1392 45.6576 41.1035 45.6813 41.0525 45.7047L40.9974 45.7295C40.9968 45.7528 40.9965 45.79 40.9927 45.8121C40.9803 45.8838 40.9654 45.8896 40.9087 45.928L40.8563 45.8841L40.8059 45.8984C40.6695 45.9393 40.5528 45.9226 40.4228 45.8681C40.4112 45.8633 40.3999 45.8579 40.3888 45.8519C40.3778 45.8458 40.3671 45.8393 40.3568 45.8322C40.3464 45.8251 40.3365 45.8175 40.3269 45.8093C40.3174 45.8012 40.3082 45.7926 40.2996 45.7836C40.2909 45.7745 40.2827 45.7649 40.275 45.755C40.2673 45.7451 40.2601 45.7348 40.2535 45.7241C40.2469 45.7135 40.2409 45.7025 40.2354 45.6912C40.2299 45.6799 40.225 45.6683 40.2207 45.6565C40.1739 45.5294 40.195 45.3757 40.2573 45.2573C40.3648 45.0531 40.5153 45.0094 40.7197 44.9414Z" fill="white"/>
<path d="M41.6281 39.772C41.8263 39.7614 41.9858 39.7806 42.1374 39.9206C42.2385 40.0138 42.29 40.1334 42.2854 40.2714C42.2827 40.3565 42.194 40.5854 42.1207 40.6218C42.0438 40.6601 42.033 40.6217 41.9447 40.6999C41.8995 40.72 41.8457 40.7481 41.7972 40.7569C41.7004 40.7744 41.5997 40.7192 41.5279 40.6582C41.402 40.5513 41.3315 40.3916 41.3172 40.2288C41.2801 39.8037 41.4686 39.9579 41.6281 39.772Z" fill="white"/>
<path d="M37.4231 24.6523C37.8271 24.8296 37.7494 24.6412 38.1276 25.045C38.0475 25.2212 37.989 25.3936 37.8175 25.501L37.665 25.5951C37.5087 25.6089 37.3784 25.6061 37.2562 25.4963C37.1513 25.4019 37.1193 25.2434 37.1258 25.1089C37.136 24.8967 37.2738 24.783 37.4231 24.6523Z" fill="white"/>
<path d="M48.7513 46.9885C48.8536 46.9813 49.0488 47.145 49.1303 47.2163C49.1852 47.2643 49.2018 47.283 49.1971 47.3596C49.1907 47.464 49.1198 47.6847 49.0476 47.7591C48.8905 47.7973 48.7532 47.8588 48.6073 47.9262L48.5681 47.9152C48.545 47.8755 48.5293 47.8599 48.4871 47.8405C48.4286 47.8135 48.3632 47.7942 48.317 47.7467C48.2247 47.6518 48.2143 47.49 48.2364 47.3673C48.2622 47.2237 48.3467 47.1083 48.4675 47.0307C48.5474 47.0319 48.6194 47.0324 48.6963 47.0074C48.7147 47.0013 48.7329 46.9948 48.7513 46.9885Z" fill="white"/>
<path d="M29.0758 15.3867C29.1409 15.3868 29.2214 15.3893 29.282 15.4158C29.3586 15.4492 29.3798 15.4897 29.4083 15.5636C29.3649 15.9068 28.7977 16.2985 28.5464 16.5178C28.4505 16.5007 28.3275 16.4599 28.2679 16.377C28.2306 16.3251 28.2288 16.2729 28.2414 16.2131C28.2967 15.9497 28.847 15.5281 29.0758 15.3867Z" fill="black"/>
<path d="M35.1524 12.0039C35.2283 12.006 35.3135 12.0196 35.3876 12.036C35.606 12.0846 35.589 12.2138 35.6762 12.3879C35.6983 12.4321 35.7467 12.4736 35.7633 12.5179C35.7792 12.5602 35.7867 12.6033 35.7643 12.6439C35.6941 12.7715 35.5377 12.8319 35.4051 12.868C35.2285 12.8053 35.0909 12.9356 34.9223 12.8243C34.8125 12.5969 34.9639 12.3999 34.9889 12.1733L34.9049 12.1419C34.9703 12.0531 35.0508 12.0426 35.1524 12.0039Z" fill="white"/>
<path d="M38.2456 20.1836C38.2655 20.1898 38.285 20.197 38.3052 20.2021C38.4507 20.2393 38.5708 20.285 38.6709 20.4054C38.6794 20.4154 38.6873 20.4258 38.6946 20.4367C38.7019 20.4476 38.7087 20.4588 38.7149 20.4704C38.721 20.4819 38.7265 20.4938 38.7314 20.506C38.7362 20.5181 38.7405 20.5305 38.744 20.5432C38.7476 20.5558 38.7504 20.5686 38.7526 20.5815C38.7548 20.5944 38.7563 20.6074 38.7572 20.6205C38.758 20.6336 38.7581 20.6467 38.7575 20.6597C38.7569 20.6728 38.7556 20.6859 38.7536 20.6988C38.7279 20.8749 38.5748 20.9843 38.4397 21.0785C38.3597 21.0938 38.3039 21.1047 38.2253 21.0777C38.0794 21.0276 37.9697 20.9671 37.8998 20.8258C37.819 20.6621 37.8756 20.5439 37.9287 20.3848C38.0458 20.3261 38.1462 20.2694 38.2456 20.1836Z" fill="white"/>
<path d="M37.6954 15.125C37.8716 15.156 38.0257 15.1955 38.1308 15.3529C38.1387 15.3648 38.146 15.3771 38.1525 15.3898C38.1589 15.4025 38.1647 15.4156 38.1698 15.4289C38.1748 15.4423 38.1791 15.4559 38.1826 15.4697C38.1861 15.4836 38.1889 15.4976 38.1908 15.5118C38.1928 15.5259 38.1939 15.5402 38.1942 15.5544C38.1946 15.5687 38.1941 15.583 38.1928 15.5972C38.1916 15.6114 38.1895 15.6255 38.1866 15.6395C38.1838 15.6535 38.1802 15.6673 38.1758 15.6809C38.1261 15.8359 37.9617 15.9318 37.825 16.0036C37.6896 15.9731 37.5635 15.9325 37.4617 15.8323C37.4049 15.7763 37.3727 15.713 37.3751 15.6317C37.3813 15.4315 37.5578 15.2528 37.6954 15.125Z" fill="white"/>
<path d="M33.6275 10.57C33.8952 10.5659 34.1751 10.5491 34.4292 10.6506C34.5384 10.6942 34.6307 10.7705 34.664 10.8878C34.7014 11.0199 34.6498 11.1257 34.5969 11.2434C34.2295 11.1159 34.1433 10.9573 33.725 10.9573C33.6425 10.9573 33.6414 10.9641 33.5851 10.9072C33.5623 10.7931 33.6006 10.6808 33.6275 10.57Z" fill="black"/>
<path d="M30.7537 4.04482C31.4384 3.99226 32.5346 4.06937 33.229 4.12952C34.8628 4.27104 36.2952 4.51028 37.858 5.03123C38.3321 5.18925 38.8179 5.33641 39.2753 5.5382C40.8983 6.25418 42.2055 7.47994 43.3294 8.82596C44.2943 9.98155 45.2167 11.2189 45.9487 12.5382C46.9657 14.3711 47.6922 16.3031 48.3299 18.2951C50.4654 24.9662 51.1662 31.9968 51.427 38.9683C51.4837 40.54 51.5294 42.1121 51.5641 43.6844C51.577 44.3963 51.6386 45.1453 51.5738 45.8531C51.0565 45.8041 50.5268 45.6432 50.0264 45.5028C49.3915 45.3248 48.739 45.1418 48.1243 44.9026C46.7714 44.3761 45.1013 43.4619 44.0199 42.4887C43.7911 41.2152 43.6615 39.9155 43.4643 38.6357C43.1921 36.8697 42.8096 35.0698 42.324 33.3515C42.0493 32.3792 41.7774 31.4051 41.4133 30.4621C40.9674 29.3075 40.3699 28.2683 40.1586 27.0287C39.949 25.7985 40.0396 24.5 40.0032 23.2561C39.935 20.9217 39.7666 18.1218 39.321 15.8478C38.9849 14.1321 38.631 12.8928 37.4598 11.5489C37.1004 11.1365 36.7151 10.7597 36.2577 10.4563C35.1008 9.68879 33.592 9.50319 32.2447 9.78153C31.9883 9.544 31.695 9.27245 31.3195 9.28908C31.2231 9.29333 31.1744 9.31873 31.1123 9.39026C31.112 9.42727 31.1096 9.43559 31.122 9.47513C31.1826 9.66905 31.497 9.77074 31.6618 9.84285C30.5198 10.0619 29.5432 10.5282 28.5787 11.1675C28.3893 11.0618 28.2122 10.9651 27.99 10.9574C27.7515 10.9492 27.5553 11.0675 27.3879 11.227C27.2249 11.4749 27.1725 11.7448 27.1274 12.0315C25.9496 12.5132 24.7773 13.1534 23.7967 13.9678C22.93 14.6875 22.3524 15.5092 22.2518 16.6537C22.1563 17.7415 22.4147 19.2194 23.1426 20.07C24.2965 21.4185 26.3167 21.7111 27.9855 21.8506C27.2027 23.7069 26.805 25.6969 26.3154 27.6404C26.2732 27.8081 26.2334 28.0077 26.1385 28.1542C26.0053 28.3598 25.1278 29.2435 24.9233 29.3668C24.6056 29.2883 23.6614 27.3299 23.5269 26.9747C23.3576 26.5276 23.2944 26.0145 23.0478 25.6029C22.8335 25.2452 22.5074 24.9611 22.2496 24.634C21.8419 24.1169 21.48 23.5576 21.0553 23.0555C20.8561 22.8199 20.5729 22.512 20.2444 22.4976C20.0763 22.4902 19.929 22.5743 19.8153 22.6936C19.5063 23.0181 19.5572 23.5438 19.5693 23.9557C19.332 23.6107 19.0781 23.2605 18.6954 23.065C18.506 22.9682 18.2663 22.9047 18.059 22.983C17.919 23.0359 17.8197 23.1461 17.7651 23.2837C17.5883 23.729 17.8287 24.3169 18.0119 24.7258C17.7773 24.5188 17.4716 24.3973 17.1765 24.3053C17.0479 24.3299 16.9172 24.3542 16.8123 24.438C16.7141 24.5166 16.6617 24.6243 16.6522 24.7492C16.611 25.2874 17.2641 25.9594 17.6018 26.3322C17.2961 26.2047 16.9916 26.1121 16.657 26.1893C16.4702 26.2324 16.2988 26.3318 16.2012 26.5009C15.567 27.599 18.5932 28.8219 19.2184 29.3905C19.4459 29.5975 19.8041 30.5237 19.9832 30.8578C20.2196 31.2895 20.465 31.7159 20.7195 32.137C20.848 32.3454 21.3302 32.9797 21.3817 33.1531C20.0929 33.3134 18.6269 33.2501 17.3175 33.2797C15.3977 33.323 13.4735 33.4234 11.5532 33.4112C11.5492 33.3671 11.5457 33.323 11.5425 33.2788C11.5005 32.6838 11.5202 32.0766 11.5206 31.4804C11.5212 30.3684 11.5291 29.2528 11.6204 28.1438C11.6918 27.2764 11.8237 26.4169 11.9447 25.5556C12.3982 22.3247 12.9072 19.3395 14.3624 16.3743C14.6857 15.7154 15.0822 15.0823 15.454 14.4497C15.8003 13.8603 16.1321 13.2535 16.51 12.6844C17.0822 11.8227 17.7643 11.0003 18.4426 10.221C20.5308 7.82233 22.4785 6.32985 25.4485 5.17233C26.536 4.74845 27.6094 4.41526 28.7633 4.22789C29.4219 4.12094 30.0889 4.09038 30.7537 4.04482Z" fill="white"/>
<path d="M46.9815 18.9922C47.0679 19.0117 47.1304 19.0345 47.1886 19.1042C47.2264 19.1495 47.233 19.2068 47.2304 19.2634C47.2058 19.8047 46.4348 20.8222 46.0311 21.1933C45.4334 21.7428 43.9179 22.342 43.0927 22.3046C43.0115 22.2831 42.9277 22.2623 42.8489 22.2329C42.7578 22.1989 42.7064 22.1578 42.6641 22.0712L42.7037 21.9994C42.995 21.8262 43.398 21.8371 43.7274 21.7794C44.7824 21.5949 45.9127 20.9456 46.4644 20.0086C46.6508 19.692 46.7496 19.3158 46.9628 19.0173C46.9689 19.0088 46.9753 19.0006 46.9815 18.9922Z" fill="black"/>
<path d="M48.8289 27.9532C48.9089 27.952 48.954 27.962 49.0273 27.994C49.0761 28.0644 49.0905 28.0776 49.0761 28.1675C49.0337 28.4332 48.3225 29.0812 48.0848 29.2205C46.9043 29.9122 45.5455 30.2689 44.1997 29.9021C44.1445 29.8781 44.1022 29.8635 44.0617 29.8166C44.017 29.7648 44.009 29.6511 44.02 29.5867C44.0248 29.5587 44.0494 29.5116 44.0813 29.5035C44.2409 29.4629 44.581 29.5618 44.7571 29.5863C45.1055 29.6347 45.4416 29.6134 45.7901 29.5742C46.5639 29.4873 47.5497 29.1704 48.13 28.6314C48.3596 28.4181 48.5364 28.1546 48.7965 27.9751C48.8072 27.9676 48.8181 27.9605 48.8289 27.9532Z" fill="black"/>
<path d="M49.6624 38.8696C49.6716 38.8688 49.6808 38.8674 49.6902 38.8673C49.7973 38.8657 49.8735 38.8882 49.9521 38.9573C49.9683 39.0583 49.938 39.1179 49.8783 39.1958C49.4565 39.7469 48.6614 40.0465 47.9947 40.1283C47.1077 40.2373 46.2961 40.0148 45.5928 39.468C45.5407 39.3945 45.4616 39.2473 45.4483 39.1569C45.4365 39.0769 45.461 39.0419 45.5007 38.9787C45.5831 38.9455 45.6265 38.9361 45.7139 38.9755C45.8462 39.0352 45.9594 39.1711 46.0666 39.2673C46.3535 39.5249 46.7501 39.6501 47.1261 39.7006C48.1401 39.8372 48.8826 39.4712 49.6624 38.8696Z" fill="black"/>
<path d="M44.0025 12.5273C44.0541 12.5332 44.1056 12.5423 44.157 12.5501C44.2269 12.6025 44.2596 12.6369 44.279 12.7248C44.3489 13.0402 43.9665 13.6384 43.8037 13.8953C43.2644 14.7462 42.4875 15.4886 41.4876 15.7172C41.3641 15.6815 41.2831 15.6643 41.2048 15.5566C41.2012 15.4816 41.1979 15.4544 41.2573 15.3968C41.3923 15.2657 41.7219 15.2063 41.901 15.1176C42.1163 15.0109 42.3142 14.8701 42.498 14.7161C42.9513 14.3362 43.4093 13.8028 43.6546 13.2608C43.7627 13.0219 43.833 12.7296 44.0025 12.5273Z" fill="black"/>
<path d="M17.3751 13.1523C17.4159 13.1563 17.483 13.1534 17.5199 13.1664C17.6283 13.205 18.0455 13.8121 18.1541 13.9342C18.738 14.5914 19.1374 14.778 19.9803 15.0049C20.157 15.0525 20.3863 15.0935 20.5358 15.1999C20.6006 15.2461 20.6392 15.3065 20.646 15.3873C20.6531 15.4712 20.5882 15.529 20.537 15.5848C19.9352 15.5113 19.2234 15.335 18.7092 15.0099C18.2994 14.7509 17.374 13.942 17.2878 13.4564C17.2651 13.3284 17.3033 13.252 17.3751 13.1523Z" fill="black"/>
<path d="M26.492 5.80666C26.5617 5.80195 26.6227 5.80603 26.6919 5.81517C26.7642 5.86413 26.8021 5.91238 26.8433 5.9877C27.0756 6.41305 27.192 7.38754 27.0574 7.83676C26.9403 7.8452 26.8494 7.85923 26.7468 7.79163C26.6409 7.50072 26.6538 7.13738 26.6003 6.82939C26.5543 6.56488 26.4612 6.28943 26.4385 6.02372C26.4317 5.94375 26.4618 5.87811 26.492 5.80666Z" fill="black"/>
<path d="M34.6955 5.40234C34.7492 5.41192 34.8082 5.42717 34.8515 5.46257C34.9661 5.55627 34.9719 5.81314 34.9713 5.94729C34.9694 6.34492 34.9237 7.11841 34.6308 7.40717C34.577 7.38648 34.5028 7.36197 34.4581 7.32592C34.3978 7.27736 34.3741 7.22106 34.375 7.14514C34.3758 7.07753 34.5766 5.58818 34.5885 5.54736C34.6087 5.47761 34.6461 5.45284 34.6955 5.40234Z" fill="black"/>
<path d="M28.1847 9.87684C28.3017 9.8691 28.4412 9.85151 28.5558 9.87525C28.6462 9.89392 28.7461 9.95968 28.7922 10.0405C28.818 10.0857 28.8025 10.102 28.7917 10.149C28.6058 10.3557 28.26 10.34 28.0087 10.4265C27.8738 10.4729 27.7514 10.5521 27.6305 10.6267C27.539 10.6835 27.4409 10.7457 27.3297 10.7497C27.245 10.7527 27.2129 10.7321 27.1518 10.6778C27.127 10.578 27.144 10.5061 27.1965 10.4201C27.4042 10.0799 27.8237 9.96793 28.1847 9.87684Z" fill="black"/>
<path d="M31.8339 1.63479C32.0381 1.65417 32.2641 1.63143 32.4698 1.62833C32.8986 1.62188 33.3304 1.62138 33.758 1.659C36.0005 1.85632 37.9368 2.27493 40.0404 3.06644C40.6464 3.29447 41.2461 3.52238 41.8192 3.8271C42.4506 4.16278 43.0628 4.6082 43.6636 5.00103C44.7136 5.68752 45.4672 6.64828 46.2338 7.62093C49.7346 12.0624 51.4373 17.1314 52.5592 22.6046C53.2211 25.8335 53.6087 29.3444 53.848 32.6307C53.9655 34.4052 54.0568 36.1811 54.1218 37.9583C54.138 38.3784 54.1858 38.7983 54.1962 39.2179C54.322 44.4387 54.3784 49.6602 54.3653 54.8825C54.3635 56.4123 54.3972 57.9427 54.3868 59.4722C54.3838 59.9301 54.4278 60.4195 54.3939 60.8729C54.3875 60.9583 54.3756 61.0229 54.3275 61.0957C54.1837 61.16 52.6165 61.1525 52.3679 61.1269C52.3585 61.126 52.3029 61.1173 52.3008 61.1138C52.2432 61.0151 52.2758 60.6802 52.2746 60.5582L52.1537 51.7536L52.0744 47.2388C51.9846 38.8254 51.7912 30.297 49.8392 22.0723C49.6721 21.3676 49.5161 20.6562 49.3198 19.9592C49.0992 19.1758 48.8368 18.4033 48.5777 17.6321C48.0356 16.0187 47.4576 14.4264 46.6645 12.916C46.4504 12.5161 46.2253 12.1226 45.9889 11.7354C45.7527 11.3481 45.5057 10.9679 45.2479 10.5946C44.9902 10.2214 44.7221 9.85568 44.4437 9.49755C44.1653 9.13941 43.8771 8.7894 43.5789 8.44752C42.7973 7.53873 41.9664 6.68014 40.9751 5.99754C38.9118 4.57687 35.4526 3.772 32.9669 3.67523C32.2704 3.64812 31.5564 3.59728 30.8601 3.61806C30.5116 3.63011 30.1633 3.64586 29.8151 3.66531C29.6724 3.6739 29.5408 3.70585 29.3967 3.69507C29.3928 3.69552 29.3889 3.69611 29.3849 3.69643C27.1905 3.87257 24.406 4.94159 22.5267 6.07842C21.5101 6.69341 20.3878 7.55936 19.5524 8.40201C18.2404 9.72524 17.0222 11.1361 15.992 12.6928C15.6535 13.2044 15.3557 13.7485 15.0416 14.2756C14.1102 15.8385 13.3188 17.4119 12.7604 19.1511C12.4738 20.044 12.2948 20.9676 12.1063 21.8847C11.5777 24.4573 11.183 27.1044 11.0926 29.7313C11.037 31.3428 11.1055 32.9535 11.1054 34.5643L11.1668 43.2391L11.2673 61.4107C10.5123 61.443 9.75699 61.4604 9.00128 61.4629C8.71672 61.4642 8.36887 61.505 8.0944 61.4354C8.05707 61.3804 8.06647 61.4094 8.06177 61.3466C8.02311 60.8315 8.04653 60.3048 8.04209 59.788L8.04012 56.1155L8.03942 46.815L8.04488 35.9939C8.06291 33.3849 8.03822 30.8127 8.29295 28.2134C8.33726 27.761 8.41667 27.318 8.48033 26.8686C8.66276 25.5564 8.88021 24.2501 9.13268 22.9496C9.41775 21.4218 9.67833 19.9345 10.1711 18.4543C10.459 17.5897 10.8514 16.7674 11.2365 15.9441C11.5059 15.3679 11.7595 14.7765 12.0522 14.212C12.364 13.611 12.7229 13.0317 13.0811 12.4578C13.8273 11.2618 14.5919 10.1309 15.5161 9.06254C16.4535 7.97894 17.5116 6.90745 18.6382 6.01892C18.909 5.80538 19.2171 5.63878 19.4997 5.4412C19.8918 5.16704 20.2663 4.8683 20.673 4.61508C22.7327 3.33269 25.3127 2.38918 27.7076 1.98659C28.5566 1.84386 29.4285 1.73668 30.2885 1.6887C30.8027 1.66001 31.3207 1.67255 31.8339 1.63479Z" fill="white"/>
<path d="M21.1731 33.627C21.3502 33.6449 21.5593 33.6095 21.7386 33.5977C22.6175 34.7386 23.5797 35.2954 24.9944 35.4914C24.9732 36.2711 24.8659 37.0527 24.818 37.832C24.736 39.1658 24.7472 41.7016 25.2158 42.9603C25.0796 43.5472 25.0633 44.1758 25.0386 44.7764C24.9637 46.5975 25.1904 48.3534 25.5022 50.1422C25.6224 50.8314 25.7324 51.5226 25.8944 52.2035C26.2438 53.6723 26.6947 55.134 27.1283 56.5798C26.8621 56.7441 26.5725 56.8633 26.2921 57.0008C25.7901 57.2469 25.2854 57.5034 24.7907 57.7637C24.2874 58.0286 23.8061 58.4486 23.2629 58.6229C22.8738 58.7478 22.3325 58.683 21.918 58.703C21.365 58.7308 20.8131 58.7729 20.2623 58.8293C18.7893 58.9875 17.2938 59.1651 15.8367 59.435C15.2336 59.5466 14.635 59.6952 14.0355 59.8257C13.9602 58.838 13.9953 57.8204 13.989 56.8294L13.9271 52.365L13.6852 34.6877C13.666 34.634 13.6432 34.5394 13.6076 34.4953C13.5468 34.4199 13.5036 34.4232 13.4145 34.411C13.3563 34.4319 13.3083 34.4468 13.2675 34.4969C13.203 34.5762 13.1982 34.6587 13.2106 34.7542C13.3051 35.4795 13.2506 36.2687 13.2548 37.0013L13.2946 40.5746L13.4229 48.9412C13.4348 50.9343 13.4629 52.9271 13.5073 54.9198C13.535 55.9827 13.5398 57.0489 13.5518 58.1123C13.5585 58.705 13.5377 59.3158 13.6031 59.9048C13.3549 59.9889 13.1026 60.0762 12.8661 60.1893C12.5331 60.3485 12.2295 60.6039 12.2331 61.0046C12.2342 61.1268 12.2791 61.255 12.238 61.3728C12.0847 61.4158 11.8905 61.3933 11.731 61.3926C11.6554 60.742 11.7234 60.0438 11.7188 59.3877L11.6918 54.7975L11.5828 41.3706L11.5389 36.4502C11.5335 35.6043 11.5936 34.7131 11.5156 33.8719C12.548 33.8188 13.5872 33.824 14.6208 33.7982C15.597 33.7737 16.5725 33.7191 17.5492 33.7064C18.7505 33.6908 19.9756 33.7115 21.1731 33.627Z" fill="white"/>
<path d="M25.4965 43.9062C25.6848 44.1546 25.7569 44.5138 25.8975 44.7972C26.1633 45.3333 26.5331 45.7805 26.9246 46.2275C27.1235 46.5087 27.4375 46.7319 27.7074 46.9444C28.9127 47.893 30.251 48.587 31.776 48.8443C31.9739 48.8774 32.173 48.8991 32.3733 48.9095C32.5736 48.9198 32.7738 48.9187 32.974 48.906C33.156 50.1519 33.156 51.4094 33.3271 52.6551C33.5622 54.3668 33.9693 56.0636 34.1536 57.7802C33.1867 58.2857 32.1569 58.6651 31.2084 59.2112C30.8584 59.4132 30.5111 59.6199 30.1666 59.8312C29.94 59.9725 29.6673 60.2341 29.4121 60.3064C28.8368 60.4692 27.7109 60.4408 27.0605 60.4779C27.3898 60.1792 28.0125 59.7904 28.2561 59.5259C28.3306 59.4451 28.3776 59.3724 28.3842 59.2605C28.3399 59.1774 28.3312 59.1776 28.245 59.1364C27.8056 59.1361 27.1904 59.7465 26.8913 60.0457C26.7414 60.194 26.6019 60.3515 26.4728 60.5181C26.1184 60.4964 25.7687 60.5237 25.4149 60.5213C25.4237 60.5124 25.4324 60.5033 25.4413 60.4945C25.8053 60.1344 26.2892 59.8358 26.7259 59.5733C26.9227 59.4551 27.162 59.3476 27.3333 59.1948C27.413 59.1237 27.4417 59.0685 27.4558 58.964C27.4217 58.8853 27.3946 58.8649 27.3214 58.8215C26.9031 58.7583 26.1568 59.399 25.8295 59.6402C25.4653 59.9088 25.102 60.1835 24.8054 60.5275C24.4093 60.483 23.999 60.5004 23.6006 60.5045L23.6352 60.4749C24.0634 60.1112 24.5751 59.7793 25.0556 59.4901C25.2847 59.3523 25.541 59.2347 25.7513 59.0698C25.8384 59.0015 25.9084 58.9374 25.9332 58.8262C25.901 58.7424 25.8829 58.7325 25.8111 58.6764C25.5327 58.6089 24.968 58.9868 24.7382 59.1275C24.1057 59.5148 23.4833 60.0084 22.9357 60.5088C22.5779 60.5057 22.141 60.5475 21.7939 60.4707C21.7012 60.4671 21.5818 60.4821 21.5078 60.4272C21.7787 59.8629 25.6289 57.8192 26.4321 57.4078C26.7864 57.2264 27.2589 57.0908 27.5604 56.8329C27.5936 56.8044 27.6417 56.7557 27.6424 56.7088C27.6455 56.4817 27.3339 55.7632 27.2575 55.5064C27.0248 54.7239 26.8261 53.9355 26.6114 53.1482C26.5081 52.7697 26.3721 52.3947 26.2795 52.0144C26.2 51.6833 26.1262 51.3509 26.0583 51.0172C25.9904 50.6835 25.9282 50.3487 25.872 50.0128C25.8157 49.6769 25.7653 49.3402 25.7208 49.0026C25.6762 48.665 25.6376 48.3267 25.6048 47.9877C25.5721 47.6487 25.5453 47.3093 25.5244 46.9694C25.5035 46.6295 25.4885 46.2893 25.4795 45.9489C25.4704 45.6084 25.4673 45.2679 25.4701 44.9274C25.473 44.5869 25.4818 44.2465 25.4965 43.9062Z" fill="#6764E8"/>
<path d="M25.4965 43.9062C25.6848 44.1546 25.7569 44.5138 25.8975 44.7972C26.1633 45.3333 26.5331 45.7805 26.9246 46.2275C26.6944 46.8742 26.6849 47.5351 26.6719 48.2122C26.6298 50.4194 27.0975 52.5827 27.6857 54.6987C27.8912 55.4383 28.1577 56.1798 28.3242 56.9275C28.1569 57.0108 27.9878 57.0978 27.8138 57.1666C27.7224 57.2027 27.2564 57.3315 27.2088 57.3769C27.2042 57.3812 27.1822 57.4513 27.1767 57.4582C27.1404 57.5039 24.8689 58.521 24.5205 58.7115C23.5759 59.2283 22.711 59.9032 21.7939 60.4707C21.7012 60.4671 21.5818 60.4821 21.5078 60.4272C21.7787 59.8629 25.6289 57.8192 26.4321 57.4078C26.7864 57.2264 27.2589 57.0908 27.5604 56.8329C27.5936 56.8044 27.6417 56.7557 27.6424 56.7088C27.6455 56.4817 27.3339 55.7632 27.2575 55.5064C27.0248 54.7239 26.8261 53.9355 26.6114 53.1482C26.5081 52.7697 26.3721 52.3947 26.2795 52.0144C26.2 51.6833 26.1262 51.3509 26.0583 51.0172C25.9904 50.6835 25.9282 50.3487 25.872 50.0128C25.8157 49.6769 25.7653 49.3402 25.7208 49.0026C25.6762 48.665 25.6376 48.3267 25.6048 47.9877C25.5721 47.6487 25.5453 47.3093 25.5244 46.9694C25.5035 46.6295 25.4885 46.2893 25.4795 45.9489C25.4704 45.6084 25.4673 45.2679 25.4701 44.9274C25.473 44.5869 25.4818 44.2465 25.4965 43.9062Z" fill="white"/>
<path d="M43.0078 50.6992C43.3032 50.7695 43.5906 50.8973 43.8762 50.9997C44.2218 51.1217 44.5726 51.2261 44.9286 51.3131C47.1385 51.848 49.4766 51.6753 51.6869 51.2475C51.6651 51.942 51.7063 52.6435 51.7217 53.3384C51.762 55.1447 51.8424 56.967 51.812 58.7732C51.8283 59.0829 51.8232 59.3939 51.8233 59.704C51.1331 59.4328 50.4245 59.3441 49.6933 59.2524C48.6123 59.1168 47.5158 59.0339 46.429 58.9601C45.7569 58.9145 45.0738 58.8947 44.407 58.7962C44.3441 57.9623 44.1807 57.1647 44.0229 56.3465C43.847 55.4126 43.6664 54.4795 43.4812 53.5473C43.2958 52.603 43.101 51.6582 43.0078 50.6992Z" fill="white"/>
<path d="M50.4052 57.8628C50.5078 57.8502 50.5778 57.8399 50.6772 57.88C50.7355 57.9431 50.7621 57.9714 50.7718 58.058C50.7439 58.1387 50.7042 58.1784 50.6319 58.2206C50.4469 58.3286 50.2083 58.3755 50.0028 58.4296C48.8166 58.7417 47.6176 58.6278 46.4406 58.3231C46.2833 58.2883 46.1243 58.2455 46.0262 58.1062C45.9869 58.0504 46.0006 58.0514 46.0114 57.9896C46.0844 57.917 46.1668 57.8887 46.2684 57.8886C46.6432 57.8884 47.0683 58.0301 47.4384 58.1018C47.8296 58.1776 48.2207 58.1958 48.6185 58.1904C49.2242 58.1823 49.8335 58.0587 50.4052 57.8628Z" fill="black"/>
<path d="M20.7615 24.5413L20.7756 24.5824C20.9166 24.999 21.1067 26.2905 21.3604 26.5297C21.4401 26.534 21.4422 26.522 21.5071 26.4732C21.5675 26.3542 21.5774 26.2551 21.5681 26.1219C21.5343 25.6435 21.3458 25.1462 21.2286 24.6817C21.1731 24.462 21.143 24.2234 21.077 24.0094C21.0552 23.9387 21.0225 23.8708 20.9931 23.803L20.9403 23.6797C21.2596 24.104 21.5756 24.5329 21.9158 24.9408C22.1321 25.2003 22.531 25.5456 22.675 25.8185C22.885 26.2165 22.9895 26.692 23.1371 27.1177C23.4143 27.9167 24.005 29.1025 24.6034 29.6968C24.5417 29.98 24.4149 30.3942 24.5863 30.6547C24.6067 30.6858 24.607 30.6836 24.6312 30.7036C24.688 30.7065 24.6906 30.718 24.7383 30.6791C24.9268 30.5254 24.9332 30.161 24.9584 29.9377C25.3066 29.6229 25.6631 29.3146 25.9884 28.9758C25.8905 29.6291 25.7429 30.2725 25.6314 30.9233C25.4604 31.9736 25.3206 33.0281 25.2121 34.0867C25.1484 34.4123 25.1215 34.7506 25.0808 35.08C24.7679 35.0292 24.4549 34.9822 24.1532 34.882C22.8864 34.4616 22.0579 33.385 21.3457 32.3168C20.9422 31.7114 20.5596 31.1111 20.2252 30.4636C20.0506 30.1254 19.8714 29.4652 19.6512 29.2032C19.3945 28.8976 18.855 28.6923 18.5105 28.4856C17.9889 28.1726 17.4409 27.829 17.0078 27.4006C17.3209 27.3893 17.6278 27.3883 17.941 27.4013C18.1519 27.3966 18.3536 27.4171 18.5228 27.2722C18.5875 27.1178 18.505 26.9306 18.4457 26.7836C18.3041 26.4322 18.0848 26.1195 17.9394 25.7728C18.2949 25.9103 19.1196 26.3134 19.4919 26.2513C19.5787 26.184 19.6158 26.1344 19.6319 26.0234C19.7053 25.5201 19.4456 24.8107 19.2372 24.3588C19.4645 24.5675 20.1608 25.2926 20.4432 25.2882C20.5045 25.2874 20.5608 25.2537 20.5995 25.2068C20.7428 25.0332 20.7481 24.7557 20.7615 24.5413Z" fill="#6764E8"/>
<path d="M17.0078 27.3994C17.3209 27.3881 17.6278 27.3871 17.941 27.4001C18.0552 27.4263 18.1689 27.4158 18.285 27.4112C18.5309 27.6121 18.7754 27.821 19.036 28.0026C19.3543 28.2246 19.9775 28.4938 20.197 28.7674C20.4418 29.0725 20.6239 29.612 20.832 29.9723C21.4952 31.1208 22.774 33.139 23.976 33.7591C24.4037 33.9797 24.7452 34.0191 25.2121 34.0855C25.1484 34.4111 25.1215 34.7494 25.0808 35.0788C24.7679 35.028 24.4549 34.981 24.1532 34.8808C22.8864 34.4604 22.0579 33.3838 21.3457 32.3156C20.9422 31.7102 20.5596 31.11 20.2252 30.4624C20.0506 30.1242 19.8714 29.464 19.6512 29.202C19.3945 28.8964 18.855 28.6911 18.5105 28.4844C17.9889 28.1714 17.4409 27.8278 17.0078 27.3994Z" fill="white"/>
<path d="M54.8163 47.3008C54.9182 47.3243 55.0199 47.3485 55.1214 47.3735C55.5703 47.4842 56.8679 47.8583 57.104 48.2866C57.1531 48.3758 57.1655 48.4767 57.1364 48.5746C57.0472 48.8754 56.6733 49.0488 56.4236 49.1978C55.9727 49.4737 55.3296 49.6822 54.8187 49.8181C54.779 48.9824 54.8031 48.1371 54.8163 47.3008Z" fill="#6764E8"/>
<path d="M33.6641 51.8438C33.7804 52.0476 33.9474 52.8417 34.0379 53.1292C34.2032 53.6537 34.3946 54.1711 34.5719 54.6917C34.8567 55.5277 35.12 56.3586 35.542 57.1385L35.2171 57.278C35.0046 57.3728 34.7944 57.4726 34.5866 57.5773C34.4846 56.988 34.4027 56.3951 34.2977 55.8064C34.0619 54.4849 33.8062 53.1815 33.6641 51.8438Z" fill="white"/>
<path d="M44.4688 49.4531C44.9571 49.6463 45.5271 49.7573 46.0361 49.9025C46.1416 50.3301 46.3008 50.7302 46.4747 51.1333C45.9503 51.095 45.4332 51.0125 44.9303 50.8561C44.7182 50.4477 44.5861 49.9009 44.4688 49.4531Z" fill="#6764E8"/>
<path d="M43.046 48.7617C43.3442 48.9831 43.6674 49.1282 43.9863 49.3129C44.0692 49.4338 44.0619 49.6514 44.1061 49.7944C44.1927 50.0744 44.4834 50.4738 44.455 50.7593C43.9638 50.5959 43.4791 50.4333 43.0078 50.2169C43.0258 49.7302 43.0012 49.2481 43.046 48.7617Z" fill="#6764E8"/>
<path d="M46.4688 49.9766C46.9691 50.0039 47.4957 50.1316 47.9944 50.2033C48.1987 50.4519 48.3412 50.8386 48.492 51.1292C48.0001 51.2136 47.448 51.1676 46.9479 51.1629C46.7945 50.7649 46.6348 50.3695 46.4688 49.9766Z" fill="#6764E8"/>
<path d="M48.4922 50.2109C49.0406 50.2792 49.5705 50.2344 50.12 50.2465C50.217 50.4344 50.4776 50.8279 50.4341 51.022C49.9468 51.0472 49.4633 51.1002 48.9747 51.1164L48.9528 51.0571C48.8415 50.7476 48.6065 50.5145 48.4922 50.2109Z" fill="#6764E8"/>
<path d="M51.3687 50.1912C51.4645 50.1744 51.5762 50.1796 51.6742 50.1758C51.687 50.3271 51.7466 50.639 51.6338 50.7593C51.5177 50.883 51.1723 50.8669 51.0042 50.8846C50.9735 50.88 50.9375 50.8651 50.9077 50.8556C50.7775 50.656 50.6894 50.4271 50.5938 50.2093C50.8528 50.2096 51.1101 50.2094 51.3687 50.1912Z" fill="#6764E8"/>
<path d="M56.2088 13.3516C56.2676 13.3565 56.3218 13.3671 56.3795 13.3789C56.5979 13.5323 56.9474 14.703 57.2304 15.0463C57.5102 15.3859 58.429 15.617 58.5537 15.9538C58.6434 16.1963 57.6817 16.4281 57.5058 16.5205C56.8965 16.8407 56.5826 17.5074 56.2547 18.0739C56.1845 18.0851 56.1199 18.1072 56.051 18.0858C55.6509 17.9615 55.5746 17.0617 55.3093 16.7507C54.9792 16.3637 54.1053 16.0961 53.9531 15.7729C54.039 15.4505 54.9915 15.2858 55.2691 15.0182C55.7505 14.554 55.7705 13.731 56.2088 13.3516Z" fill="black"/>
<path d="M56.2106 14.082C56.5715 14.5831 56.6245 15.2133 57.1837 15.6118C57.3541 15.7333 57.5605 15.8048 57.737 15.9183L57.7853 15.9498C57.0745 16.2757 56.66 16.5677 56.2379 17.2371L56.1157 17.4173C55.7384 16.5745 55.5865 16.3125 54.7969 15.8055C54.9164 15.744 55.0363 15.6825 55.1522 15.6143C55.7515 15.2617 56.0425 14.7401 56.2106 14.082Z" fill="white"/>
<path d="M6.60235 13.4141L6.68646 13.4444C6.91986 13.7534 7.00555 14.1772 7.14672 14.5335C7.29044 14.8962 7.58636 15.2701 7.92584 15.4616C8.0811 15.5491 8.25801 15.5973 8.41753 15.6764C8.5017 15.7182 8.57254 15.7605 8.60389 15.8532C8.57844 16.1512 8.12338 16.2214 7.88413 16.3269C7.10991 16.6683 6.85461 17.4209 6.39738 18.036C6.32484 18.0591 6.24528 18.091 6.16901 18.0637C5.7921 17.9288 5.80849 17.0771 5.5836 16.7661C5.32846 16.4133 4.51463 16.2141 4.39844 15.8852C4.45791 15.544 5.30855 15.3142 5.57939 15.0683C5.93645 14.7441 5.99581 14.1618 6.21672 13.7509C6.31761 13.5632 6.39783 13.4756 6.60235 13.4141Z" fill="black"/>
<path d="M6.49807 14.1797C6.53076 14.2135 6.52321 14.1992 6.54003 14.2388C6.83177 14.9256 7.0959 15.4686 7.74913 15.8695C7.10345 16.3961 6.78112 16.5975 6.28832 17.3035L6.2733 17.313C6.15695 17.1876 6.17948 16.935 6.08186 16.7784C6.07428 16.7663 6.06603 16.7546 6.05833 16.7424C5.8043 16.3433 5.5253 16.1395 5.125 15.8927C5.9521 15.4419 6.16656 15.0374 6.49807 14.1797Z" fill="white"/>
<path d="M11.5445 6.25C11.5998 6.25213 11.6549 6.25776 11.71 6.26245C11.9952 6.46724 12.0976 7.12695 12.3608 7.43069C12.6127 7.72141 13.0837 7.82088 13.2814 8.12709C13.2073 8.34774 12.5017 8.62049 12.2934 8.81467C12.0005 9.08768 11.8928 9.53411 11.5819 9.77037C11.504 9.7757 11.4003 9.78719 11.325 9.75926C11.0781 9.66786 10.971 8.89839 10.761 8.68048C10.553 8.46479 10.2398 8.39096 9.98823 8.24179C9.91218 8.19672 9.8746 8.15083 9.85156 8.06457C9.88311 7.97348 9.93713 7.92987 10.0176 7.88131C10.2703 7.72878 10.597 7.64702 10.8195 7.45456C11.1895 7.13444 11.1441 6.54341 11.5445 6.25Z" fill="black"/>
<path d="M11.5706 6.95312C11.6943 7.16076 11.7936 7.45675 11.9516 7.63397C12.1092 7.81082 12.3854 7.95993 12.5034 8.15721C12.4908 8.15702 12.4781 8.15715 12.4655 8.15664C12.4465 8.15582 12.4277 8.15442 12.4088 8.15334C12.0711 8.39347 11.7894 8.69111 11.5548 9.03046L11.5158 9.0813L11.4703 9.07134C11.4493 9.02195 11.4275 8.97314 11.406 8.92401C11.2491 8.56676 10.9441 8.28969 10.6562 8.03826C11.2042 7.71294 11.3398 7.54961 11.5706 6.95312Z" fill="white"/>
<path d="M52.4061 6.21875C52.4333 6.22204 52.4447 6.22196 52.4729 6.23379C52.7851 6.36504 52.8874 7.01232 53.1118 7.27898C53.3482 7.56012 53.9671 7.83719 54.0835 8.10189C54.08 8.15572 54.0878 8.18784 54.0542 8.23322C53.9124 8.42473 53.4482 8.50624 53.2145 8.71672C52.9137 8.98771 52.7467 9.36888 52.5154 9.69534L52.3459 9.70943C52.2881 9.6869 52.255 9.6704 52.2142 9.62165C52.0132 9.38158 51.986 8.9401 51.6569 8.58107C51.36 8.25722 50.9901 8.2152 50.8431 8.05841C50.818 7.98459 50.8128 7.95145 50.8318 7.87553C51.0577 7.61401 51.4625 7.55479 51.7081 7.30139C51.9953 7.00508 52.0718 6.4176 52.4061 6.21875Z" fill="black"/>
<path d="M52.4137 6.96875C52.4484 7.00131 52.4366 6.9843 52.4569 7.02689C52.6633 7.46177 52.9571 7.84003 53.367 8.09463C52.9608 8.31699 52.731 8.59845 52.4589 8.96122L52.4335 8.97759L52.3836 8.94706C52.2392 8.55547 51.9347 8.16979 51.5781 7.94959C51.942 7.6588 52.1706 7.36738 52.4137 6.96875Z" fill="white"/>
</svg>
