<svg width="24" height="24" viewBox="0 0 24 24" fill="none" xmlns="http://www.w3.org/2000/svg">
<path d="M11.0859 18.5C11.0859 18.7761 11.3098 19 11.5859 19C11.8621 19 12.0859 18.7761 12.0859 18.5L11.5859 18.5L11.0859 18.5ZM11.5859 5.5L11.9395 5.14645L11.5859 4.79289L11.2324 5.14645L11.5859 5.5ZM11.5859 18.5L12.0859 18.5L12.0859 5.5L11.5859 5.5L11.0859 5.5L11.0859 18.5L11.5859 18.5ZM11.5859 5.5L11.2324 5.14645L6.23238 10.1464L6.58594 10.5L6.93949 10.8536L11.9395 5.85355L11.5859 5.5ZM11.5859 5.5L11.2324 5.85355L16.2324 10.8536L16.5859 10.5L16.9395 10.1464L11.9395 5.14645L11.5859 5.5Z" fill="white"/>
</svg>
